# xmcd
#
# Track frame offsets: 
#        150
#        33451
#        51377
#        78228
#        100729
#        122480
#        145656
#        168457
#        189083
#
# Disc length: 2719 seconds
#
# Revision: 1
# Processed by: cddbd v1.5.2PL0 Copyright (c) Steve Scherf et al.
# Submitted via: ExactAudioCopyFreeDBPlugin 1.0
#
DISCID=6b0a9d09
DTITLE=Tadeusz Nalepa - Najstarszy zawód świata
DYEAR=1995
DGENRE=Blues
TTITLE0=Byłem zły jak pies
TTITLE1=Dlatego głupku jesteś sam
TTITLE2=Zabawka
TTITLE3=Jesteś człowiekiem
TTITLE4=Najstarszy zawód świata
TTITLE5=Biedak
TTITLE6=Niechciane dzieci
TTITLE7=Dogonić życie
TTITLE8=Daj rozkoszy noce
EXTD=
EXTT0=
EXTT1=
EXTT2=
EXTT3=
EXTT4=
EXTT5=
EXTT6=
EXTT7=
EXTT8=
PLAYORDER=
